<?xml version="1.0" encoding="UTF-8"?>
<svg version="1.1" xmlns="http://www.w3.org/2000/svg" width="128" height="128">
<path d="M0 0 C31.02 0 62.04 0 94 0 C94.061875 13.6125 94.12375 27.225 94.1875 41.25 C94.22846802 47.69515137 94.22846802 47.69515137 94.27026367 54.27050781 C94.28381348 59.52099609 94.28381348 59.52099609 94.28633118 61.97967529 C94.29093526 63.69535658 94.30148104 65.41102822 94.31672668 67.12664795 C94.33867626 69.7268559 94.3417184 72.32647114 94.34057617 74.92675781 C94.3513705 75.68993946 94.36216482 76.45312111 94.37328625 77.23942947 C94.34834343 81.4790961 93.95136194 83.89054624 91 87 C91 87.33 91 87.66 91 88 C87.7 88 84.4 88 81 88 C81 92.62 81 97.24 81 102 C79.02 102.99 79.02 102.99 77 104 C76.505 105.485 76.505 105.485 76 107 C72.04 107 68.08 107 64 107 C64 111.62 64 116.24 64 121 C62.515 121.495 62.515 121.495 61 122 C60.505 123.485 60.505 123.485 60 125 C56.12823186 126.93588407 51.35796042 126.47609565 47.08984375 126.71875 C44.13091514 126.65571925 44.13091514 126.65571925 43 128 C40.59651714 128.09496708 38.22189018 128.12558862 35.81811523 128.11352539 C34.6913588 128.11374443 34.6913588 128.11374443 33.5418396 128.1139679 C31.04739541 128.11326863 28.55302497 128.10547564 26.05859375 128.09765625 C24.33366436 128.09579212 22.60873443 128.09436819 20.88380432 128.09336853 C16.33487497 128.08954297 11.78597733 128.07971238 7.23706055 128.06866455 C2.59879994 128.05845124 -2.03946577 128.05387108 -6.67773438 128.04882812 C-15.78517022 128.03809014 -24.89258248 128.02101327 -34 128 C-34.02312484 118.49925675 -34.0409158 108.99852312 -34.05181217 99.49775791 C-34.05704069 95.08662996 -34.06413777 90.6755212 -34.07543945 86.2644043 C-34.08626944 82.01098885 -34.09227707 77.75759191 -34.09487724 73.50416374 C-34.09673129 71.87778367 -34.10035152 70.25140466 -34.10573006 68.62503242 C-34.11294198 66.35489807 -34.11399088 64.08484115 -34.11352539 61.81469727 C-34.115746 60.52008072 -34.11796661 59.22546417 -34.12025452 57.89161682 C-34 55 -34 55 -33 54 C-32.79607799 50.6919318 -32.6537346 47.39117412 -32.5703125 44.078125 C-32.37027564 39.54395612 -31.65746346 36.67956479 -29 33 C-28.67 32.34 -28.34 31.68 -28 31 C-24.7 31 -21.4 31 -18 31 C-18 27.04 -18 23.08 -18 19 C-17.34 19 -16.68 19 -16 19 C-15.566875 18.030625 -15.13375 17.06125 -14.6875 16.0625 C-13 13 -13 13 -10 12 C-8.27204648 11.93197033 -6.54164635 11.91504355 -4.8125 11.9375 C-2.4303125 11.9684375 -2.4303125 11.9684375 0 12 C0 8.04 0 4.08 0 0 Z M-10 13 C-10 13.33 -10 13.66 -10 14 C-6.7 14 -3.4 14 0 14 C0 13.67 0 13.34 0 13 C-3.3 13 -6.6 13 -10 13 Z M-27 32 C-27 32.33 -27 32.66 -27 33 C-24.03 33 -21.06 33 -18 33 C-18 32.67 -18 32.34 -18 32 C-20.97 32 -23.94 32 -27 32 Z M64 105 C64 105.33 64 105.66 64 106 C67.63 106 71.26 106 75 106 C75 105.67 75 105.34 75 105 C71.37 105 67.74 105 64 105 Z M46 124 C46 124.33 46 124.66 46 125 C49.96 125 53.92 125 58 125 C58 124.67 58 124.34 58 124 C54.04 124 50.08 124 46 124 Z " fill="#FDFDFD" transform="translate(34,0)"/>
<path d="M0 0 C30.36 0 60.72 0 92 0 C93.17151231 3.51453692 93.1553173 6.68852082 93.16113281 10.34545898 C93.16858017 11.46301575 93.16858017 11.46301575 93.17617798 12.60314941 C93.1907818 15.06747358 93.19759791 17.53173342 93.203125 19.99609375 C93.20887703 21.70858258 93.21463476 23.42107139 93.22039795 25.13356018 C93.23090225 28.72389018 93.23674894 32.31419781 93.24023438 35.90454102 C93.24572405 40.50590696 93.26976445 45.10697773 93.29820633 49.708251 C93.31682375 53.24527351 93.32203778 56.7822247 93.32357025 60.31929207 C93.32659833 62.01577433 93.33463209 63.71225529 93.34775543 65.4086895 C93.36480076 67.78107112 93.36293992 70.15272856 93.35644531 72.52514648 C93.3656601 73.22605911 93.37487488 73.92697174 93.3843689 74.64912415 C93.35912147 77.59156799 93.10424833 79.78096645 91.83319092 82.45155334 C89.27799127 84.60986119 87.6079112 84.40507817 84.3125 84.25 C83.31863281 84.21390625 82.32476562 84.1778125 81.30078125 84.140625 C80.54152344 84.09421875 79.78226562 84.0478125 79 84 C78.99857498 83.23214172 78.99714996 82.46428345 78.99568176 81.67315674 C78.97784585 74.43371581 78.9362164 67.19498675 78.86790943 59.95586014 C78.83363015 56.23416346 78.80852816 52.51287764 78.80444336 48.79101562 C78.80016215 45.19853614 78.7717168 41.6069836 78.72656822 38.0147934 C78.71358709 36.64493969 78.70928781 35.27497507 78.71384621 33.90506744 C78.71874655 31.98513478 78.68981004 30.06520626 78.65942383 28.14550781 C78.64943108 26.50669647 78.64943108 26.50669647 78.63923645 24.83477783 C78.20246364 21.86113763 78.20246364 21.86113763 75.96847534 19.64627075 C72.20752108 17.56050338 69.03351042 17.4518085 64.8449707 17.51416016 C63.63437485 17.50846512 63.63437485 17.50846512 62.39932251 17.50265503 C59.74107573 17.49526632 57.08393025 17.5166023 54.42578125 17.5390625 C52.57683948 17.54144737 50.72789526 17.54235216 48.87895203 17.5418396 C45.00955984 17.54496438 41.14053903 17.56150889 37.27124023 17.58837891 C32.30431582 17.62242966 27.33779793 17.63000531 22.37077045 17.62848854 C18.55586343 17.62903144 14.74104579 17.63998447 10.92616844 17.65449142 C9.09408431 17.6608669 7.26199003 17.66480007 5.4298954 17.66627884 C2.87536852 17.6705999 0.32127908 17.68807262 -2.2331543 17.70947266 C-2.99421982 17.70856628 -3.75528534 17.70765991 -4.53941345 17.70672607 C-8.72703233 17.62111465 -8.72703233 17.62111465 -12 20 C-12.33 24.62 -12.66 29.24 -13 34 C10.1 34 33.2 34 57 34 C56.505 34.99 56.505 34.99 56 36 C54.97713898 36.00808685 53.95427795 36.01617371 52.90042114 36.02450562 C43.27657333 36.10187839 33.65286845 36.1895949 24.02920723 36.28752708 C19.08118639 36.33754421 14.13318746 36.3838736 9.18505859 36.421875 C4.41282034 36.4586596 -0.3592369 36.50500057 -5.13132095 36.55806351 C-6.95500651 36.57664387 -8.77873093 36.59173826 -10.60247421 36.60334396 C-13.15037456 36.6201444 -15.69785702 36.64916358 -18.24560547 36.68115234 C-19.00517548 36.68331253 -19.76474548 36.68547272 -20.54733276 36.68769836 C-24.73060566 36.62027029 -24.73060566 36.62027029 -28 39 C-28.33 43.62 -28.66 48.24 -29 53 C-18.77 53 -8.54 53 2 53 C2 53.33 2 53.66 2 54 C1.01604248 54.01981934 0.03208496 54.03963867 -0.98168945 54.06005859 C-4.63282839 54.13613987 -8.28357009 54.224853 -11.93432617 54.31738281 C-13.51432451 54.35566221 -15.09440969 54.39051697 -16.67456055 54.421875 C-18.94611645 54.46754876 -21.21707509 54.52553784 -23.48828125 54.5859375 C-24.19463211 54.59748871 -24.90098297 54.60903992 -25.6287384 54.62094116 C-29.27741393 54.73071048 -30.88213546 54.92142364 -34 57 C-33.67 56.01 -33.34 55.02 -33 54 C-32.8051938 50.65943436 -32.65561104 47.32539017 -32.5703125 43.98046875 C-32.36928113 39.48239178 -31.62855528 36.65301785 -29 33 C-28.67 32.34 -28.34 31.68 -28 31 C-24.7 31 -21.4 31 -18 31 C-18 27.04 -18 23.08 -18 19 C-17.34 19 -16.68 19 -16 19 C-15.566875 18.030625 -15.13375 17.06125 -14.6875 16.0625 C-13 13 -13 13 -10 12 C-8.27204648 11.93197033 -6.54164635 11.91504355 -4.8125 11.9375 C-2.4303125 11.9684375 -2.4303125 11.9684375 0 12 C0 8.04 0 4.08 0 0 Z M-10 13 C-10 13.33 -10 13.66 -10 14 C-6.7 14 -3.4 14 0 14 C0 13.67 0 13.34 0 13 C-3.3 13 -6.6 13 -10 13 Z M-27 32 C-27 32.33 -27 32.66 -27 33 C-24.03 33 -21.06 33 -18 33 C-18 32.67 -18 32.34 -18 32 C-20.97 32 -23.94 32 -27 32 Z " fill="#F1F1F1" transform="translate(34,0)"/>
<path d="M0 0 C0.80516556 -0.00525696 1.61033112 -0.01051392 2.43989563 -0.01593018 C5.10400739 -0.02914465 7.76752268 -0.02038713 10.43164062 -0.01025391 C12.28104772 -0.01227423 14.13045404 -0.01518532 15.9798584 -0.01895142 C19.85692933 -0.02337673 23.73379299 -0.01693707 27.61083984 -0.00292969 C32.58451586 0.01416233 37.55770625 0.00432225 42.53136444 -0.01364708 C46.35060292 -0.02447934 50.16972597 -0.02104115 53.9889679 -0.0132637 C55.82302406 -0.01126015 57.65709065 -0.0137264 59.49113464 -0.02070236 C62.05296658 -0.02830771 64.61400828 -0.01672592 67.17578125 0 C67.93639359 -0.00607269 68.69700592 -0.01214539 69.48066711 -0.0184021 C72.2930272 0.01567457 74.55247698 0.10028297 77.05813599 1.44761658 C78.66165418 4.46943789 78.50452818 7.48797401 78.47607422 10.82543945 C78.48133118 11.58023087 78.48658813 12.33502228 78.49200439 13.11268616 C78.50521632 15.60967661 78.49646152 18.10603031 78.48632812 20.60302734 C78.48834874 22.33793765 78.49126007 24.07284712 78.49502563 25.80775452 C78.49945077 29.44524211 78.4930127 33.08250878 78.47900391 36.7199707 C78.46192456 41.38192076 78.47174393 46.04335221 78.4897213 50.70528316 C78.50056494 54.28865969 78.49710992 57.87191342 78.48933792 61.45529366 C78.48733686 63.17408878 78.48979192 64.89289507 78.49677658 66.61167717 C78.50439929 69.01526256 78.49277546 71.41801017 78.47607422 73.8215332 C78.48214691 74.53179657 78.4882196 75.24205994 78.49447632 75.97384644 C78.45703386 78.88386094 78.18376366 81.16904075 77.0128479 83.84547424 C74.06481173 86.20810484 71.60396673 85.77409464 67.90039062 85.63818359 C66.62808594 85.60208984 65.35578125 85.56599609 64.04492188 85.52880859 C63.06910156 85.48240234 62.09328125 85.43599609 61.08789062 85.38818359 C61.08202438 84.57829987 61.07615814 83.76841614 61.07011414 82.93399048 C61.01227388 75.3114406 60.94024802 67.68922085 60.85217571 60.0669651 C60.80739715 56.14801707 60.76815803 52.22917479 60.74145508 48.31005859 C60.71549607 44.52974339 60.67514756 40.74983356 60.62470436 36.96976852 C60.60798521 35.52568977 60.59650244 34.08154081 60.59027672 32.63737869 C60.58069122 30.61881739 60.55096734 28.60038179 60.52026367 26.58203125 C60.50916061 25.43175446 60.49805756 24.28147766 60.48661804 23.09634399 C60.35503799 22.20265106 60.22345795 21.30895813 60.08789062 20.38818359 C56.48427425 17.98577268 54.79380848 18.11689987 50.50512695 18.06933594 C49.84144608 18.05929031 49.1777652 18.04924469 48.49397278 18.03889465 C46.3026312 18.00803046 44.11141197 17.99101892 41.91992188 17.97412109 C40.39962204 17.955412 38.87933261 17.93583878 37.35905457 17.91543579 C33.3593255 17.86408102 29.35956276 17.82447334 25.35968018 17.78729248 C21.27746222 17.74727372 17.19538476 17.69617169 13.11328125 17.64599609 C5.10491364 17.54919724 -2.90352343 17.46480526 -10.91210938 17.38818359 C-10.99308261 15.11793391 -11.05128641 12.84686284 -11.09960938 10.57568359 C-11.13441406 9.31111328 -11.16921875 8.04654297 -11.20507812 6.74365234 C-10.91210938 3.38818359 -10.91210938 3.38818359 -9.89489746 1.46322632 C-6.73577783 -0.24960855 -3.50363055 -0.02797282 0 0 Z " fill="#272867" transform="translate(15.912109375,35.61181640625)"/>
<path d="M0 0 C0.80355927 -0.00686325 1.60711853 -0.0137265 2.43502808 -0.02079773 C5.09431573 -0.03911612 7.75301623 -0.03522106 10.41235352 -0.02954102 C12.25936577 -0.03410054 14.10637633 -0.03940542 15.9533844 -0.04542542 C19.82625211 -0.05436651 23.69891373 -0.05192223 27.57177734 -0.04199219 C32.53648724 -0.03050357 37.50048578 -0.05070714 42.4651022 -0.07990932 C46.28010075 -0.09825047 50.09492822 -0.097983 53.90995979 -0.0922718 C55.74040792 -0.09211832 57.57086745 -0.09818495 59.40127373 -0.11056328 C61.96067869 -0.12543167 64.51876159 -0.11482749 67.078125 -0.09765625 C67.83514206 -0.10732422 68.59215912 -0.11699219 69.37211609 -0.12695312 C72.64785883 -0.08090258 74.77994991 0.19947161 77.57202148 1.96348572 C79.64425186 5.26523588 79.67202706 8.17347542 79.63720703 11.95483398 C79.65013039 13.08724014 79.65013039 13.08724014 79.66331482 14.24252319 C79.68598987 16.73421662 79.67923411 19.22478683 79.67016602 21.71655273 C79.6754007 23.45003596 79.68167661 25.18351632 79.68894958 26.91699219 C79.69935639 30.54855765 79.69478809 34.17973134 79.68017578 37.8112793 C79.66298115 42.46563148 79.68648927 47.11874996 79.72166538 51.77296448 C79.74362247 55.35209334 79.74220219 58.93092617 79.73390007 62.51010132 C79.73307973 64.22611851 79.7399589 65.94215725 79.7546711 67.65811157 C79.77208839 70.05727061 79.75760168 72.45420221 79.73486328 74.85327148 C79.75240158 75.91630997 79.75240158 75.91630997 79.77029419 77.00082397 C79.70096783 80.59492546 79.32837415 82.15411304 76.89634705 84.86035156 C73.84525178 86.54695215 72.23443203 86.83768859 68.79125977 86.65405273 C67.90825195 86.61795898 67.02524414 86.58186523 66.11547852 86.54467773 C65.45161133 86.49827148 64.78774414 86.45186523 64.10375977 86.40405273 C64.09829132 85.21468109 64.09829132 85.21468109 64.0927124 84.00128174 C64.05483568 76.5264513 63.99798752 69.05211944 63.91985703 61.57761002 C63.88035798 57.73490956 63.84818175 53.89243907 63.83276367 50.04956055 C63.81761255 46.34047258 63.78319597 42.63201674 63.73545074 38.92321014 C63.72062072 37.50870002 63.71271781 36.09409964 63.71187592 34.67951202 C63.70950978 32.6972857 63.6801667 30.71514724 63.6496582 28.7331543 C63.64077576 27.60508362 63.63189331 26.47701294 63.6227417 25.3147583 C63.2971351 22.34326295 63.2971351 22.34326295 61.49963379 20.04260254 C58.27833611 17.83954151 56.11399816 17.88614078 52.22387695 17.8581543 C51.19887589 17.84264778 51.19887589 17.84264778 50.15316772 17.826828 C47.90208261 17.79740918 45.65189696 17.79590114 43.40063477 17.79467773 C41.83691697 17.77969533 40.273215 17.76296804 38.70953369 17.74456787 C34.59960197 17.70088831 30.4898837 17.68089413 26.37976074 17.66583252 C22.18346532 17.64626346 17.9874005 17.60429329 13.79125977 17.56420898 C5.56215343 17.48890041 -2.66686237 17.4386131 -10.89624023 17.40405273 C-10.97721347 15.13380305 -11.03541727 12.86273198 -11.08374023 10.59155273 C-11.11854492 9.32698242 -11.15334961 8.06241211 -11.18920898 6.75952148 C-10.89624023 3.40405273 -10.89624023 3.40405273 -9.8780365 1.48008728 C-6.72463417 -0.23208157 -3.49893522 -0.02075114 0 0 Z " fill="#7D7FF7" transform="translate(31.896240234375,16.595947265625)"/>
<path d="M0 0 C1.2030357 0.67957742 2.39711138 1.37524401 3.58203125 2.0859375 C4.18466797 2.41722656 4.78730469 2.74851562 5.40820312 3.08984375 C9.72598834 5.60183734 12.31476487 7.91494447 14.39453125 12.4609375 C14.90485947 16.5591515 14.86258161 20.58733729 14.76953125 24.7109375 C14.76824219 25.81179687 14.76695313 26.91265625 14.765625 28.046875 C14.67570361 36.17976514 14.67570361 36.17976514 12.39453125 38.4609375 C8.93181804 38.19960065 6.16515275 37.88294451 3.09765625 36.203125 C-0.25246251 35.2832947 -1.75274341 36.14377035 -4.72851562 37.7734375 C-5.32728516 38.1240625 -5.92605469 38.4746875 -6.54296875 38.8359375 C-10.92397501 41.36106787 -14.40891176 43.24448663 -19.60546875 42.4609375 C-21.52428234 40.95565884 -22.46427422 39.98450506 -23.10400391 37.61230469 C-23.15862793 36.91782227 -23.21325195 36.22333984 -23.26953125 35.5078125 C-23.33301758 34.71181641 -23.39650391 33.91582031 -23.46191406 33.09570312 C-23.72329603 28.29836597 -23.9122781 23.5152784 -23.98046875 18.7109375 C-24.01785156 17.69644531 -24.05523438 16.68195313 -24.09375 15.63671875 C-24.18131042 8.23299918 -24.18131042 8.23299918 -21.32421875 4.40234375 C-16.89575927 1.24006737 -16.89575927 1.24006737 -14.73046875 0.1484375 C-14.11429688 -0.17769531 -13.498125 -0.50382812 -12.86328125 -0.83984375 C-8.11489229 -2.31036559 -4.54526539 -1.94023246 0 0 Z " fill="#EBEBEE" transform="translate(42.60546875,74.5390625)"/>
<path d="M0 0 C4.08333322 0.37736966 5.83085883 1.68327716 9.046875 4.1796875 C9.99046875 4.89898437 10.9340625 5.61828125 11.90625 6.359375 C16.23123495 9.8787255 16.23123495 9.8787255 16.6640625 12.6875 C15.952591 17.75862667 11.12786098 20.30873234 7.296875 23.3046875 C5.96849609 24.34689453 5.96849609 24.34689453 4.61328125 25.41015625 C-2.04022697 30.36321363 -2.04022697 30.36321363 -4.87109375 30.11328125 C-6.703125 29.3046875 -6.703125 29.3046875 -8.703125 27.3046875 C-9.20728505 23.88965593 -9.11983983 20.44021546 -9.140625 16.9921875 C-9.17349609 16.04150391 -9.20636719 15.09082031 -9.24023438 14.11132812 C-9.29451599 7.04978391 -9.29451599 7.04978391 -6.23828125 3.19921875 C-4.98337891 2.26142578 -4.98337891 2.26142578 -3.703125 1.3046875 C-2.703125 0.3046875 -2.703125 0.3046875 0 0 Z " fill="#2B2C69" transform="translate(27.703125,75.6953125)"/>
<path d="M0 0 C0.99 0.103125 1.98 0.20625 3 0.3125 C5.24305946 3.67708918 5.25653373 4.84766271 5.265625 8.78515625 C5.26949219 10.38133789 5.26949219 10.38133789 5.2734375 12.00976562 C5.26570313 13.12029297 5.25796875 14.23082031 5.25 15.375 C5.25773437 16.48939453 5.26546875 17.60378906 5.2734375 18.75195312 C5.27085938 19.81478516 5.26828125 20.87761719 5.265625 21.97265625 C5.26336914 22.94855713 5.26111328 23.92445801 5.25878906 24.92993164 C5 27.3125 5 27.3125 3 29.3125 C-2.48260081 29.08682394 -5.89693131 27.51687721 -10.375 24.4375 C-11.41398437 23.73882812 -12.45296875 23.04015625 -13.5234375 22.3203125 C-16 20.3125 -16 20.3125 -17 17.3125 C-16.21753906 16.81621094 -15.43507812 16.31992188 -14.62890625 15.80859375 C-8.97906377 12.37956322 -8.97906377 12.37956322 -5.1171875 7.29296875 C-4.88107364 5.22961764 -4.88107364 5.22961764 -5 2.3125 C-3 0.3125 -3 0.3125 0 0 Z " fill="#6B70F7" transform="translate(52,83.6875)"/>
<path d="M0 0 C2.97 0.33 5.94 0.66 9 1 C9 1.33 9 1.66 9 2 C45.63 2.495 45.63 2.495 83 3 C83 3.33 83 3.66 83 4 C81.48450058 4.01213028 81.48450058 4.01213028 79.93838501 4.02450562 C70.43226504 4.10187945 60.92628974 4.18959623 51.42035866 4.28752708 C46.53287233 4.33754354 41.64540818 4.38387293 36.7578125 4.421875 C32.04392757 4.45866045 27.33022588 4.50500165 22.61649704 4.55806351 C20.81514057 4.57664342 19.01374477 4.59173798 17.21232986 4.60334396 C14.69556022 4.62014518 12.17921353 4.64916452 9.66259766 4.68115234 C8.53726875 4.68439262 8.53726875 4.68439262 7.38920593 4.68769836 C3.23964898 4.62644235 3.23964898 4.62644235 0 7 C-0.33 11.62 -0.66 16.24 -1 21 C9.23 21 19.46 21 30 21 C30 21.33 30 21.66 30 22 C28.52406372 22.029729 28.52406372 22.029729 27.01831055 22.06005859 C23.36717161 22.13613987 19.71642991 22.224853 16.06567383 22.31738281 C14.48567549 22.35566221 12.90559031 22.39051697 11.32543945 22.421875 C9.05388355 22.46754876 6.78292491 22.52553784 4.51171875 22.5859375 C3.80536789 22.59748871 3.09901703 22.60903992 2.3712616 22.62094116 C-1.27741393 22.73071048 -2.88213546 22.92142364 -6 25 C-5.505 23.515 -5.505 23.515 -5 22 C-4.83749508 18.68851091 -4.70403364 15.38343317 -4.65820312 12.06835938 C-4.44891948 6.86547068 -3.2228885 4.09776442 0 0 Z " fill="#CDCDD9" transform="translate(6,32)"/>
<path d="M0 0 C2.375 2.25 2.375 2.25 4 5 C3.81190541 7.25713514 3.60454441 8.39545559 2 10 C0.33382885 10.04063832 -1.33388095 10.042721 -3 10 C-3.66 8.68 -4.32 7.36 -5 6 C-6.8 7.6 -6.8 7.6 -7 14 C15.11 14 37.22 14 60 14 C60 14.33 60 14.66 60 15 C37.56 15 15.12 15 -8 15 C-8 10.38 -8 5.76 -8 1 C-4.93309225 -0.02230258 -3.18373032 -0.46591175 0 0 Z " fill="#9D9EEA" transform="translate(29,19)"/>
<path d="M0 0 C1.875 0.3125 1.875 0.3125 4 1 C6.35431835 4.53147752 6.25286919 6.00112629 6.25878906 10.18383789 C6.26509338 11.45848404 6.27139771 12.73313019 6.27789307 14.04640198 C6.27431366 15.43848814 6.27021179 16.83057304 6.265625 18.22265625 C6.26697212 19.64847378 6.26891305 21.07429086 6.27142334 22.50010681 C6.27437144 25.48685077 6.27008648 28.47347504 6.26074219 31.46020508 C6.24933739 35.2927275 6.25591543 39.12497014 6.26788712 42.95748234 C6.27510542 45.90081399 6.27281813 48.84407901 6.26763153 51.78741264 C6.26629548 53.20084097 6.2679412 54.6142753 6.27259064 56.02769661 C6.27765623 58.00031548 6.26856961 59.97295551 6.25878906 61.94555664 C6.25640228 63.63075157 6.25640228 63.63075157 6.25396729 65.34999084 C6 68 6 68 4 70 C3.99413376 69.18202942 3.98826752 68.36405884 3.98222351 67.52130127 C3.92430954 59.81108149 3.8522407 52.10118535 3.76428509 44.39125443 C3.71956542 40.42752365 3.68031304 36.46389602 3.65356445 32.5 C3.62754704 28.67429311 3.58715634 24.84898285 3.53681374 21.02352142 C3.52013432 19.5643482 3.50862671 18.10510635 3.50238609 16.64585114 C3.49275618 14.60104333 3.46471322 12.55725264 3.43237305 10.51269531 C3.42126999 9.34909485 3.41016693 8.18549438 3.39872742 6.9866333 C2.96684985 3.75169169 2.18838467 2.36663738 0 0 Z " fill="#F0F2F7" transform="translate(90,35)"/>
<path d="M0 0 C0.79921875 0.01804688 1.5984375 0.03609375 2.421875 0.0546875 C3.02515625 0.07789063 3.6284375 0.10109375 4.25 0.125 C4.25 0.785 4.25 1.445 4.25 2.125 C5.9 2.455 7.55 2.785 9.25 3.125 C9.58 4.775 9.91 6.425 10.25 8.125 C8 8.8125 8 8.8125 5.25 9.125 C2.9375 7.6875 2.9375 7.6875 1.25 6.125 C0.858125 6.640625 0.46625 7.15625 0.0625 7.6875 C-0.535625 8.161875 -1.13375 8.63625 -1.75 9.125 C-4.4375 8.8125 -4.4375 8.8125 -6.75 8.125 C-6.75 6.475 -6.75 4.825 -6.75 3.125 C-7.41 2.795 -8.07 2.465 -8.75 2.125 C-5.68753253 0.34090198 -3.52920727 -0.10380021 0 0 Z " fill="#E6E6ED" transform="translate(49.75,-0.125)"/>
<path d="M0 0 C0.33 1.65 0.66 3.3 1 5 C-1.91482778 5.80967438 -3.46113217 6.21845993 -6.3125 5.0625 C-6.869375 4.711875 -7.42625 4.36125 -8 4 C-8.99 4.66 -9.98 5.32 -11 6 C-13.6875 5.625 -13.6875 5.625 -16 5 C-15.875 2.6875 -15.875 2.6875 -15 0 C-9.66484634 -4.26812293 -5.70548933 -2.47237871 0 0 Z " fill="#404076" transform="translate(27,41)"/>
<path d="M0 0 C0.33 0 0.66 0 1 0 C1.19990835 3.59835033 0.96808719 5.93853104 -1 9 C-4.04213267 10.52106634 -7.28047572 10.37429338 -10.625 10.5625 C-11.33140625 10.60568359 -12.0378125 10.64886719 -12.765625 10.69335938 C-14.51018537 10.79944751 -16.25506697 10.90022889 -18 11 C-18 9.02 -18 7.04 -18 5 C-17.03578125 4.97421875 -16.0715625 4.9484375 -15.078125 4.921875 C-13.81484375 4.86515625 -12.5515625 4.8084375 -11.25 4.75 C-9.99703125 4.70359375 -8.7440625 4.6571875 -7.453125 4.609375 C-3.57042673 3.92419295 -2.45418474 2.97837954 0 0 Z M-15 8 C-15 8.33 -15 8.66 -15 9 C-11.04 9 -7.08 9 -3 9 C-3 8.67 -3 8.34 -3 8 C-6.96 8 -10.92 8 -15 8 Z " fill="#F2F2F5" transform="translate(95,116)"/>
<path d="M0 0 C1.67542976 0.28604898 3.34385343 0.61781233 5 1 C5.625 2.875 5.625 2.875 6 5 C5.34 5.66 4.68 6.32 4 7 C1.875 6.625 1.875 6.625 0 6 C-0.38218767 4.34385343 -0.71395102 2.67542976 -1 1 C-0.67 0.67 -0.34 0.34 0 0 Z " fill="#EAEAEA" transform="translate(19,59)"/>
<path d="M0 0 C1.67542976 0.28604898 3.34385343 0.61781233 5 1 C4.67 2.65 4.34 4.3 4 6 C2.125 6.625 2.125 6.625 0 7 C-0.66 6.34 -1.32 5.68 -2 5 C-1.46428571 1.46428571 -1.46428571 1.46428571 0 0 Z " fill="#E8E9E8" transform="translate(9,59)"/>
<path d="M0 0 C2.125 0.375 2.125 0.375 4 1 C4.625 2.875 4.625 2.875 5 5 C4.34 5.66 3.68 6.32 3 7 C0.875 6.625 0.875 6.625 -1 6 C-1.625 4.125 -1.625 4.125 -2 2 C-1.34 1.34 -0.68 0.68 0 0 Z " fill="#EEEFF8" transform="translate(39,22)"/>
<path d="M0 0 C1.65 0 3.3 0 5 0 C5.33 1.65 5.66 3.3 6 5 C1.25 6.125 1.25 6.125 -1 5 C-0.67 3.35 -0.34 1.7 0 0 Z " fill="#8B8AEF" transform="translate(54,3)"/>
<path d="M0 0 C2.125 0.9375 2.125 0.9375 4 2 C3.67 3.65 3.34 5.3 3 7 C1.35 6.67 -0.3 6.34 -2 6 C-2 4.35 -2 2.7 -2 1 C-1.34 0.67 -0.68 0.34 0 0 Z " fill="#EBECEF" transform="translate(24,40)"/>
<path d="M0 0 C2.0625 0.4375 2.0625 0.4375 4 1 C4.625 2.875 4.625 2.875 5 5 C4.34 5.66 3.68 6.32 3 7 C0.875 6.625 0.875 6.625 -1 6 C-1.042721 4.33388095 -1.04063832 2.66617115 -1 1 C-0.67 0.67 -0.34 0.34 0 0 Z " fill="#F1F1F8" transform="translate(28,22)"/>
<path d="M0 0 C1.65 0.33 3.3 0.66 5 1 C4.67 2.65 4.34 4.3 4 6 C2.35 5.67 0.7 5.34 -1 5 C-0.67 3.35 -0.34 1.7 0 0 Z " fill="#F2F2F4" transform="translate(12,41)"/>
<path d="M0 0 C1.65 0.33 3.3 0.66 5 1 C4.67 2.65 4.34 4.3 4 6 C2.35 5.67 0.7 5.34 -1 5 C-0.67 3.35 -0.34 1.7 0 0 Z " fill="#8182EF" transform="translate(44,3)"/>
<path d="M0 0 C0.66 0.33 1.32 0.66 2 1 C1.67 1.99 1.34 2.98 1 4 C3.475 4.99 3.475 4.99 6 6 C6 6.99 6 7.98 6 9 C5.54109375 8.66226563 5.0821875 8.32453125 4.609375 7.9765625 C0.01807574 4.63691049 0.01807574 4.63691049 -5 2 C-2.625 0.9375 -2.625 0.9375 0 0 Z " fill="#E4E4E9" transform="translate(32,73)"/>
<path d="M0 0 C0.33 0 0.66 0 1 0 C1 5.28 1 10.56 1 16 C0.67 16 0.34 16 0 16 C0 10.72 0 5.44 0 0 Z " fill="#F9F9F9" transform="translate(0,38)"/>
<path d="" fill="#FFFFFF" transform="translate(0,0)"/>
<path d="" fill="#FFFFFF" transform="translate(0,0)"/>
<path d="" fill="#FFFFFF" transform="translate(0,0)"/>
<path d="" fill="#FFFFFF" transform="translate(0,0)"/>
<path d="" fill="#FFFFFF" transform="translate(0,0)"/>
<path d="" fill="#FFFFFF" transform="translate(0,0)"/>
<path d="" fill="#FFFFFF" transform="translate(0,0)"/>
<path d="" fill="#FFFFFF" transform="translate(0,0)"/>
<path d="" fill="#FFFFFF" transform="translate(0,0)"/>
<path d="" fill="#FFFFFF" transform="translate(0,0)"/>
<path d="" fill="#FFFFFF" transform="translate(0,0)"/>
<path d="" fill="#FFFFFF" transform="translate(0,0)"/>
<path d="" fill="#FFFFFF" transform="translate(0,0)"/>
<path d="" fill="#FFFFFF" transform="translate(0,0)"/>
<path d="" fill="#FFFFFF" transform="translate(0,0)"/>
<path d="" fill="#FFFFFF" transform="translate(0,0)"/>
</svg>
