<?xml version="1.0" encoding="UTF-8"?>
<svg width="128" height="128" viewBox="0 0 128 128" fill="none" xmlns="http://www.w3.org/2000/svg">
  <rect width="128" height="128" rx="24" fill="#2D3748"/>
  <path d="M64 28C43.0132 28 26 45.0132 26 66C26 86.9868 43.0132 104 64 104C84.9868 104 102 86.9868 102 66C102 45.0132 84.9868 28 64 28ZM64 96C47.4315 96 34 82.5685 34 66C34 49.4315 47.4315 36 64 36C80.5685 36 94 49.4315 94 66C94 82.5685 80.5685 96 64 96Z" fill="white"/>
  <path d="M64 44C51.8497 44 42 53.8497 42 66C42 78.1503 51.8497 88 64 88C76.1503 88 86 78.1503 86 66C86 53.8497 76.1503 44 64 44ZM64 80C56.268 80 50 73.732 50 66C50 58.268 56.268 52 64 52C71.732 52 78 58.268 78 66C78 73.732 71.732 80 64 80Z" fill="#A0AEC0"/>
  <circle cx="64" cy="66" r="10" fill="#4299E1"/>
</svg> 